<?xml version="1.0" standalone="no"?>
<!DOCTYPE svg PUBLIC "-//W3C//DTD SVG 20010904//EN"
 "http://www.w3.org/TR/2001/REC-SVG-20010904/DTD/svg10.dtd">
<svg version="1.0" xmlns="http://www.w3.org/2000/svg"
 width="300.000000pt" height="120.000000pt" viewBox="0 0 300.000000 120.000000"
 preserveAspectRatio="xMidYMid meet">
<metadata>
Created by potrace 1.10, written by Peter Selinger 2001-2011
</metadata>
<g transform="translate(0.000000,120.000000) scale(0.100000,-0.100000)"
fill="#000000" stroke="none">
<path d="M290 1001 c-97 -30 -138 -81 -152 -188 -12 -93 -4 -433 11 -482 40
-131 266 -177 385 -79 54 44 68 80 74 185 l5 93 -102 0 -101 0 0 -83 c0 -90
-13 -122 -46 -115 -18 3 -19 15 -22 271 -2 241 -1 268 14 274 39 15 49 -9 52
-118 l3 -104 99 0 100 0 0 77 c0 159 -36 228 -136 262 -49 17 -140 20 -184 7z
m133 -18 c4 -3 18 -8 32 -9 14 -1 32 -9 40 -18 8 -8 24 -17 34 -21 33 -10 54
-72 58 -166 2 -62 -1 -86 -10 -86 -6 0 -16 -2 -22 -3 -5 -1 -35 -2 -66 -1
l-55 1 -3 93 c-3 103 -15 127 -62 127 -55 0 -59 -18 -59 -297 0 -247 0 -253
22 -273 56 -52 99 -9 101 99 0 39 3 68 6 66 2 -3 10 0 18 6 10 9 17 8 30 -2
11 -10 14 -10 9 -1 -10 16 16 16 33 0 11 -10 13 -10 7 0 -9 15 20 17 30 1 4
-8 9 -7 15 2 5 8 7 -19 5 -66 -5 -111 -25 -148 -95 -183 -77 -37 -164 -38
-242 -1 -80 39 -84 55 -84 354 0 132 3 252 7 266 8 28 51 79 67 79 5 0 11 5
13 12 2 6 18 11 36 11 18 0 32 4 32 9 0 10 94 11 103 1z"/>
<path d="M768 1001 c-49 -10 -84 -35 -105 -74 -14 -25 -18 -63 -21 -181 -4
-170 7 -218 61 -261 l32 -25 -41 0 c-23 0 -46 -6 -51 -12 -11 -15 -32 -124
-40 -209 -4 -41 -2 -59 8 -65 21 -13 162 -14 187 -2 17 9 25 9 34 0 7 -7 40
-12 74 -12 47 0 67 5 88 21 25 20 26 24 26 129 0 105 -1 109 -26 129 -16 13
-41 21 -63 21 l-36 0 32 30 c47 44 55 84 51 262 -3 141 -5 159 -24 185 -41 54
-112 79 -186 64z m129 -41 c54 -32 58 -49 58 -230 0 -180 -5 -200 -61 -236
-33 -22 -120 -22 -162 0 -55 29 -64 59 -64 236 0 178 8 206 64 233 46 23 125
22 165 -3z m-81 -576 c8 -30 18 -54 20 -54 3 0 2 25 -2 56 l-7 57 72 -5 c39
-3 78 -11 86 -18 19 -16 22 -199 3 -218 -7 -7 -41 -12 -85 -12 l-72 0 -11 43
c-17 65 -18 66 -19 10 l-1 -53 -45 0 c-38 0 -45 3 -45 20 0 11 -4 20 -10 20
-5 0 -10 -9 -10 -20 0 -16 -7 -20 -35 -20 -41 0 -40 -5 -20 135 8 55 15 103
15 107 0 4 34 7 75 7 l75 -1 16 -54z"/>
<path d="M795 888 c-3 -8 -4 -83 -3 -168 3 -139 5 -155 21 -158 16 -3 17 8 15
164 -2 123 -6 168 -15 172 -7 2 -15 -3 -18 -10z"/>
<path d="M920 309 c0 -51 4 -78 10 -74 6 3 10 40 10 81 0 43 -4 74 -10 74 -6
0 -10 -34 -10 -81z"/>
<path d="M691 323 c-1 -24 4 -43 9 -43 12 0 12 37 0 65 -7 15 -9 10 -9 -22z"/>
<path d="M1040 605 l0 -390 100 0 100 0 0 178 c0 182 1 188 41 167 18 -10 19
-23 19 -175 l0 -164 95 -3 95 -3 0 158 c0 184 -7 208 -73 237 -42 19 -42 19
-11 19 19 1 39 10 55 27 22 24 24 33 24 129 0 112 -8 134 -69 179 -24 19 -46
22 -202 26 l-174 5 0 -390z m342 354 c70 -37 95 -101 86 -215 -5 -55 -30 -94
-61 -94 -8 0 -20 -7 -27 -15 -16 -19 0 -40 35 -49 44 -11 55 -51 55 -201 l0
-135 -69 0 -69 0 -4 143 c-2 111 -7 149 -19 168 -18 27 -61 36 -78 16 -6 -8
-12 -77 -13 -172 l-3 -159 -65 1 c-36 1 -70 2 -77 2 -9 1 -12 87 -12 359 l0
358 149 3 c102 2 156 -1 172 -10z"/>
<path d="M1230 870 c-6 -11 -10 -58 -8 -108 l3 -87 38 -3 c35 -3 39 -1 52 32
35 83 3 185 -57 186 -10 0 -22 -9 -28 -20z m59 -24 c7 -9 11 -41 9 -83 -3 -66
-4 -68 -30 -71 l-28 -3 0 85 c0 77 2 86 19 86 10 0 24 -6 30 -14z"/>
<path d="M1520 605 l0 -390 175 3 175 3 0 74 0 75 -75 0 -75 0 0 88 0 87 63
-3 63 -4 -4 60 c-2 33 0 62 6 66 10 6 25 -85 27 -174 3 -99 14 -112 89 -99 49
9 55 20 55 95 -1 34 8 95 19 135 47 172 33 188 -17 20 -20 -68 -31 -125 -31
-167 l0 -64 -45 0 -45 0 0 68 c0 45 -10 102 -30 172 -16 58 -30 108 -30 112 0
3 19 5 43 4 l42 -2 11 -65 10 -64 7 40 c18 95 18 96 37 90 24 -8 72 4 64 16
-8 13 -71 11 -95 -3 -17 -10 -23 -10 -26 0 -6 16 -85 16 -101 0 -17 -17 -15
-48 5 -70 15 -17 13 -18 -50 -18 l-67 0 0 75 0 75 65 0 65 0 0 78 0 77 -165 0
-165 0 0 -390z m308 311 l-1 -53 -55 -2 c-30 -1 -59 -4 -63 -7 -12 -7 -12
-171 0 -178 4 -3 34 -6 65 -7 31 -1 52 -6 45 -10 -10 -6 -10 -11 0 -22 8 -11
9 -17 1 -22 -6 -4 -8 -15 -5 -26 6 -17 1 -19 -42 -19 -27 0 -54 -5 -61 -12
-14 -14 -17 -194 -4 -202 5 -3 39 -6 76 -7 37 -1 64 -5 59 -8 -12 -9 -15 -34
-4 -26 12 7 10 -57 -2 -66 -5 -3 -58 -4 -118 -2 -71 3 -115 1 -123 -6 -26 -22
-43 -2 -50 57 -4 31 -6 194 -6 363 l2 306 143 1 143 0 0 -52z"/>
<path d="M2054 970 c3 -14 24 -187 47 -385 22 -198 42 -361 43 -362 1 -1 58
-3 126 -4 l125 -1 22 158 c12 88 22 178 22 202 1 26 5 41 11 37 6 -3 10 -24
10 -46 0 -40 22 -200 41 -299 l11 -55 124 0 124 0 5 30 c5 31 85 731 85 743 0
4 -44 6 -97 5 l-98 -1 -17 -129 c-22 -167 -34 -404 -19 -383 6 8 11 40 11 70
0 48 12 163 36 360 l6 56 78 0 c61 -1 76 -3 68 -13 -5 -7 -7 -17 -3 -22 7 -12
-62 -650 -73 -670 -6 -10 -31 -13 -107 -12 -55 1 -103 5 -107 9 -4 4 -18 86
-33 182 -14 96 -30 179 -35 184 -16 16 -40 -15 -40 -53 -1 -20 -5 -56 -11 -81
-5 -25 -14 -81 -19 -125 -16 -132 -5 -120 -119 -120 -55 0 -102 3 -106 6 -5 5
-23 157 -65 534 -9 87 -13 147 -11 173 1 8 21 12 66 12 78 0 71 22 90 -265 6
-89 22 -216 29 -222 10 -10 7 100 -9 287 -8 96 -15 186 -15 200 0 25 0 25
-100 25 l-101 0 5 -25z"/>
<path d="M2344 985 c-9 -31 -44 -384 -43 -442 l2 -68 8 50 c10 60 50 403 50
428 0 15 11 17 84 17 80 0 85 -1 90 -22 5 -25 25 -267 32 -393 2 -44 9 -84 15
-90 12 -11 4 198 -15 403 l-12 124 -104 1 c-62 1 -105 -2 -107 -8z"/>
</g>
</svg>
